<svg xmlns="http://www.w3.org/2000/svg"
  xmlns:xlink="http://www.w3.org/1999/xlink" width="246" zoomAndPan="magnify" viewBox="0 0 123 37.5" height="75" preserveAspectRatio="xMidYMid meet" version="1.0">
  <defs>
    <g/>
    <clipPath id="b47c12189b">
      <path d="M 4.511719 3.699219 L 34.113281 3.699219 L 34.113281 33.304688 L 4.511719 33.304688 Z M 4.511719 3.699219 " clip-rule="nonzero"/>
    </clipPath>
    <clipPath id="2fc5b318e1">
      <path d="M 19.3125 3.699219 C 11.136719 3.699219 4.511719 10.328125 4.511719 18.503906 C 4.511719 26.679688 11.136719 33.304688 19.3125 33.304688 C 27.488281 33.304688 34.113281 26.679688 34.113281 18.503906 C 34.113281 10.328125 27.488281 3.699219 19.3125 3.699219 " clip-rule="nonzero"/>
    </clipPath>
  </defs>
  <g clip-path="url(#b47c12189b)">
    <g clip-path="url(#2fc5b318e1)">
      <path fill="#44bbbb" d="M 4.511719 3.699219 L 34.113281 3.699219 L 34.113281 33.304688 L 4.511719 33.304688 Z M 4.511719 3.699219 " fill-opacity="1" fill-rule="nonzero"/>
    </g>
  </g>
  <g fill="#ffffff" fill-opacity="1">
    <g transform="translate(11.107807, 26.2951)">
      <g>
        <path d="M 3.960938 0 L 4.40625 0 C 5.765625 0 6.507812 -0.742188 6.484375 -2.101562 C 6.484375 -3.710938 6.484375 -5.296875 6.484375 -6.878906 C 6.929688 -7.003906 7.152344 -7.003906 7.597656 -7.003906 C 8.832031 -7.003906 9.453125 -5.988281 10.195312 -2.054688 C 10.441406 -0.691406 11.183594 0 12.472656 0 L 13.113281 0 C 14.597656 0 15.265625 -0.914062 14.921875 -2.472656 C 14.402344 -4.652344 14.152344 -5.542969 13.882812 -6.285156 C 13.113281 -8.289062 12.273438 -8.957031 10.839844 -9.179688 L 10.839844 -9.304688 C 12.175781 -10.070312 13.410156 -12.199219 14.328125 -14.746094 C 14.847656 -16.207031 14.078125 -17.148438 12.570312 -17.148438 L 12.101562 -17.148438 C 10.8125 -17.148438 10.144531 -16.503906 9.847656 -15.21875 C 9.328125 -13.089844 8.386719 -11.136719 7.078125 -10.269531 L 6.484375 -9.871094 C 6.484375 -11.605469 6.484375 -13.335938 6.484375 -15.042969 C 6.507812 -16.40625 5.765625 -17.148438 4.40625 -17.148438 L 3.960938 -17.148438 C 2.597656 -17.148438 1.855469 -16.40625 1.878906 -15.042969 C 1.878906 -12.890625 1.90625 -10.738281 1.90625 -8.585938 C 1.90625 -6.433594 1.878906 -4.28125 1.878906 -2.101562 C 1.855469 -0.742188 2.597656 0 3.960938 0 Z M 3.960938 0 "/>
      </g>
    </g>
  </g>
  <g fill="#44bbbb" fill-opacity="1">
    <g transform="translate(38.481068, 24.568869)">
      <g>
        <path d="M 7.671875 -8.496094 C 7.339844 -9.089844 6.9375 -9.546875 6.457031 -9.859375 C 5.980469 -10.167969 5.4375 -10.335938 4.855469 -10.335938 L 1.746094 -10.335938 C 1.601562 -10.335938 1.488281 -10.285156 1.394531 -10.191406 C 1.289062 -10.085938 1.246094 -9.972656 1.246094 -9.835938 L 1.246094 -0.488281 C 1.246094 -0.34375 1.289062 -0.230469 1.394531 -0.136719 C 1.488281 -0.0429688 1.601562 0 1.746094 0 L 4.855469 0 C 5.4375 0 5.980469 -0.15625 6.457031 -0.46875 C 6.9375 -0.78125 7.339844 -1.226562 7.671875 -1.820312 C 7.921875 -2.265625 8.109375 -2.777344 8.246094 -3.347656 C 8.371094 -3.921875 8.441406 -4.523438 8.441406 -5.15625 C 8.441406 -5.78125 8.371094 -6.382812 8.246094 -6.957031 C 8.109375 -7.527344 7.921875 -8.039062 7.671875 -8.496094 Z M 5.875 -2.816406 C 5.769531 -2.628906 5.667969 -2.484375 5.5625 -2.382812 C 5.460938 -2.277344 5.355469 -2.195312 5.261719 -2.152344 C 5.167969 -2.101562 5.085938 -2.070312 5.011719 -2.070312 C 4.9375 -2.058594 4.886719 -2.058594 4.855469 -2.058594 L 3.804688 -2.058594 C 3.660156 -2.058594 3.546875 -2.101562 3.453125 -2.195312 C 3.347656 -2.289062 3.304688 -2.402344 3.304688 -2.546875 L 3.304688 -7.777344 C 3.304688 -7.914062 3.347656 -8.027344 3.453125 -8.121094 C 3.546875 -8.214844 3.660156 -8.265625 3.804688 -8.265625 L 4.855469 -8.265625 C 5.085938 -8.265625 5.304688 -8.171875 5.488281 -7.996094 C 5.675781 -7.808594 5.84375 -7.570312 5.980469 -7.277344 C 6.105469 -6.988281 6.207031 -6.65625 6.28125 -6.28125 C 6.34375 -5.90625 6.382812 -5.53125 6.382812 -5.15625 C 6.382812 -4.699219 6.332031 -4.261719 6.25 -3.859375 C 6.15625 -3.453125 6.03125 -3.109375 5.875 -2.816406 Z M 5.875 -2.816406 "/>
      </g>
    </g>
  </g>
  <g fill="#44bbbb" fill-opacity="1">
    <g transform="translate(47.756268, 24.568869)">
      <g>
        <path d="M 8.734375 -0.46875 L 5.96875 -10.042969 C 5.9375 -10.128906 5.886719 -10.191406 5.824219 -10.253906 C 5.75 -10.304688 5.667969 -10.335938 5.582031 -10.335938 L 3.785156 -10.335938 C 3.691406 -10.335938 3.609375 -10.304688 3.546875 -10.253906 C 3.472656 -10.191406 3.421875 -10.128906 3.398438 -10.042969 L 0.632812 -0.46875 C 0.59375 -0.34375 0.613281 -0.238281 0.695312 -0.144531 C 0.769531 -0.0429688 0.863281 0 0.988281 0 L 2.351562 0 C 2.433594 0 2.515625 -0.0195312 2.589844 -0.0742188 C 2.652344 -0.125 2.703125 -0.199219 2.734375 -0.292969 L 3.183594 -1.871094 C 3.203125 -1.953125 3.253906 -2.015625 3.328125 -2.070312 C 3.390625 -2.121094 3.472656 -2.152344 3.566406 -2.152344 L 5.800781 -2.152344 C 5.886719 -2.152344 5.96875 -2.121094 6.042969 -2.070312 C 6.105469 -2.015625 6.15625 -1.953125 6.1875 -1.871094 L 6.644531 -0.292969 C 6.664062 -0.199219 6.71875 -0.125 6.789062 -0.0742188 C 6.851562 -0.0195312 6.9375 0 7.027344 0 L 8.382812 0 C 8.503906 0 8.597656 -0.0429688 8.671875 -0.144531 C 8.746094 -0.238281 8.765625 -0.34375 8.734375 -0.46875 Z M 5.367188 -4.210938 L 4.003906 -4.210938 C 3.960938 -4.210938 3.941406 -4.222656 3.921875 -4.253906 C 3.898438 -4.273438 3.890625 -4.304688 3.898438 -4.347656 L 4.585938 -6.707031 C 4.597656 -6.757812 4.628906 -6.789062 4.691406 -6.789062 C 4.742188 -6.789062 4.773438 -6.757812 4.792969 -6.707031 L 5.46875 -4.347656 C 5.480469 -4.304688 5.46875 -4.273438 5.449219 -4.253906 C 5.429688 -4.222656 5.398438 -4.210938 5.367188 -4.210938 Z M 5.367188 -4.210938 "/>
      </g>
    </g>
  </g>
  <g fill="#44bbbb" fill-opacity="1">
    <g transform="translate(57.135458, 24.568869)">
      <g>
        <path d="M 7.777344 -10.335938 L 1.859375 -10.335938 C 1.683594 -10.335938 1.539062 -10.273438 1.425781 -10.148438 C 1.300781 -10.023438 1.246094 -9.886719 1.246094 -9.722656 L 1.246094 -8.890625 C 1.246094 -8.714844 1.300781 -8.566406 1.425781 -8.453125 C 1.539062 -8.328125 1.683594 -8.277344 1.859375 -8.277344 L 3.515625 -8.277344 C 3.585938 -8.277344 3.648438 -8.246094 3.710938 -8.195312 C 3.765625 -8.132812 3.796875 -8.070312 3.796875 -7.996094 L 3.796875 -0.613281 C 3.796875 -0.445312 3.847656 -0.300781 3.972656 -0.175781 C 4.097656 -0.0507812 4.242188 0 4.410156 0 L 5.242188 0 C 5.40625 0 5.550781 -0.0507812 5.675781 -0.175781 C 5.792969 -0.300781 5.855469 -0.445312 5.855469 -0.613281 L 5.855469 -7.996094 C 5.855469 -8.070312 5.875 -8.132812 5.9375 -8.195312 C 5.988281 -8.246094 6.050781 -8.277344 6.136719 -8.277344 L 7.777344 -8.277344 C 7.945312 -8.277344 8.089844 -8.328125 8.214844 -8.453125 C 8.339844 -8.566406 8.402344 -8.714844 8.402344 -8.890625 L 8.402344 -9.722656 C 8.402344 -9.886719 8.339844 -10.023438 8.214844 -10.148438 C 8.089844 -10.273438 7.945312 -10.335938 7.777344 -10.335938 Z M 7.777344 -10.335938 "/>
      </g>
    </g>
  </g>
  <g fill="#44bbbb" fill-opacity="1">
    <g transform="translate(66.784996, 24.568869)">
      <g>
        <path d="M 8.734375 -0.46875 L 5.96875 -10.042969 C 5.9375 -10.128906 5.886719 -10.191406 5.824219 -10.253906 C 5.75 -10.304688 5.667969 -10.335938 5.582031 -10.335938 L 3.785156 -10.335938 C 3.691406 -10.335938 3.609375 -10.304688 3.546875 -10.253906 C 3.472656 -10.191406 3.421875 -10.128906 3.398438 -10.042969 L 0.632812 -0.46875 C 0.59375 -0.34375 0.613281 -0.238281 0.695312 -0.144531 C 0.769531 -0.0429688 0.863281 0 0.988281 0 L 2.351562 0 C 2.433594 0 2.515625 -0.0195312 2.589844 -0.0742188 C 2.652344 -0.125 2.703125 -0.199219 2.734375 -0.292969 L 3.183594 -1.871094 C 3.203125 -1.953125 3.253906 -2.015625 3.328125 -2.070312 C 3.390625 -2.121094 3.472656 -2.152344 3.566406 -2.152344 L 5.800781 -2.152344 C 5.886719 -2.152344 5.96875 -2.121094 6.042969 -2.070312 C 6.105469 -2.015625 6.15625 -1.953125 6.1875 -1.871094 L 6.644531 -0.292969 C 6.664062 -0.199219 6.71875 -0.125 6.789062 -0.0742188 C 6.851562 -0.0195312 6.9375 0 7.027344 0 L 8.382812 0 C 8.503906 0 8.597656 -0.0429688 8.671875 -0.144531 C 8.746094 -0.238281 8.765625 -0.34375 8.734375 -0.46875 Z M 5.367188 -4.210938 L 4.003906 -4.210938 C 3.960938 -4.210938 3.941406 -4.222656 3.921875 -4.253906 C 3.898438 -4.273438 3.890625 -4.304688 3.898438 -4.347656 L 4.585938 -6.707031 C 4.597656 -6.757812 4.628906 -6.789062 4.691406 -6.789062 C 4.742188 -6.789062 4.773438 -6.757812 4.792969 -6.707031 L 5.46875 -4.347656 C 5.480469 -4.304688 5.46875 -4.273438 5.449219 -4.253906 C 5.429688 -4.222656 5.398438 -4.210938 5.367188 -4.210938 Z M 5.367188 -4.210938 "/>
      </g>
    </g>
  </g>
  <g fill="#44bbbb" fill-opacity="1">
    <g transform="translate(76.164186, 24.568869)">
      <g>
        <path d="M 10.449219 -10.335938 L 9.398438 -10.335938 C 9.078125 -10.335938 8.796875 -10.222656 8.566406 -10.011719 L 6.3125 -7.945312 C 6.25 -7.882812 6.1875 -7.859375 6.113281 -7.859375 C 6.03125 -7.859375 5.96875 -7.882812 5.917969 -7.945312 L 3.660156 -10.011719 C 3.421875 -10.222656 3.140625 -10.335938 2.828125 -10.335938 L 1.777344 -10.335938 C 1.632812 -10.335938 1.507812 -10.285156 1.402344 -10.179688 C 1.300781 -10.074219 1.246094 -9.949219 1.246094 -9.804688 L 1.246094 -0.53125 C 1.246094 -0.382812 1.300781 -0.261719 1.402344 -0.15625 C 1.507812 -0.0507812 1.632812 0 1.777344 0 L 2.777344 0 C 2.921875 0 3.046875 -0.0507812 3.152344 -0.15625 C 3.253906 -0.261719 3.304688 -0.382812 3.304688 -0.53125 L 3.304688 -6.882812 C 3.304688 -6.945312 3.316406 -6.996094 3.347656 -7.039062 C 3.378906 -7.082031 3.421875 -7.121094 3.472656 -7.144531 C 3.515625 -7.164062 3.566406 -7.164062 3.628906 -7.164062 C 3.679688 -7.152344 3.734375 -7.132812 3.785156 -7.089844 L 5.75 -5.261719 C 5.855469 -5.15625 5.96875 -5.117188 6.113281 -5.117188 C 6.25 -5.117188 6.363281 -5.15625 6.46875 -5.261719 L 8.441406 -7.089844 C 8.484375 -7.132812 8.535156 -7.152344 8.597656 -7.164062 C 8.652344 -7.164062 8.703125 -7.164062 8.753906 -7.144531 C 8.796875 -7.121094 8.839844 -7.082031 8.871094 -7.039062 C 8.902344 -6.996094 8.921875 -6.945312 8.921875 -6.882812 L 8.921875 -0.53125 C 8.921875 -0.382812 8.972656 -0.261719 9.078125 -0.15625 C 9.179688 -0.0507812 9.304688 0 9.453125 0 L 10.449219 0 C 10.59375 0 10.71875 -0.0507812 10.824219 -0.15625 C 10.929688 -0.261719 10.980469 -0.382812 10.980469 -0.53125 L 10.980469 -9.804688 C 10.980469 -9.949219 10.929688 -10.074219 10.824219 -10.179688 C 10.71875 -10.285156 10.59375 -10.335938 10.449219 -10.335938 Z M 10.449219 -10.335938 "/>
      </g>
    </g>
  </g>
  <g fill="#44bbbb" fill-opacity="1">
    <g transform="translate(88.392488, 24.568869)">
      <g>
        <path d="M 3.640625 -8.265625 L 7.195312 -8.265625 C 7.289062 -8.265625 7.371094 -8.296875 7.433594 -8.359375 C 7.496094 -8.421875 7.527344 -8.503906 7.527344 -8.609375 L 7.527344 -9.992188 C 7.527344 -10.085938 7.496094 -10.167969 7.433594 -10.230469 C 7.371094 -10.292969 7.289062 -10.335938 7.195312 -10.335938 L 1.582031 -10.335938 C 1.476562 -10.335938 1.402344 -10.292969 1.339844 -10.230469 C 1.277344 -10.167969 1.246094 -10.085938 1.246094 -9.992188 L 1.246094 -0.332031 C 1.246094 -0.230469 1.277344 -0.15625 1.339844 -0.09375 C 1.402344 -0.03125 1.476562 0 1.582031 0 L 7.195312 0 C 7.289062 0 7.371094 -0.03125 7.433594 -0.09375 C 7.496094 -0.15625 7.527344 -0.230469 7.527344 -0.332031 L 7.527344 -1.726562 C 7.527344 -1.808594 7.496094 -1.890625 7.433594 -1.953125 C 7.371094 -2.015625 7.289062 -2.058594 7.195312 -2.058594 L 3.640625 -2.058594 C 3.546875 -2.058594 3.460938 -2.089844 3.398438 -2.152344 C 3.335938 -2.214844 3.304688 -2.289062 3.304688 -2.390625 L 3.304688 -3.796875 C 3.304688 -3.890625 3.335938 -3.972656 3.398438 -4.035156 C 3.460938 -4.097656 3.546875 -4.136719 3.640625 -4.136719 L 5.054688 -4.136719 C 5.148438 -4.136719 5.230469 -4.167969 5.292969 -4.230469 C 5.355469 -4.292969 5.398438 -4.367188 5.398438 -4.472656 L 5.398438 -5.855469 C 5.398438 -5.949219 5.355469 -6.03125 5.292969 -6.09375 C 5.230469 -6.15625 5.148438 -6.199219 5.054688 -6.199219 L 3.640625 -6.199219 C 3.546875 -6.199219 3.460938 -6.226562 3.398438 -6.289062 C 3.335938 -6.351562 3.304688 -6.425781 3.304688 -6.53125 L 3.304688 -7.933594 C 3.304688 -8.027344 3.335938 -8.109375 3.398438 -8.171875 C 3.460938 -8.234375 3.546875 -8.265625 3.640625 -8.265625 Z M 3.640625 -8.265625 "/>
      </g>
    </g>
  </g>
  <g fill="#44bbbb" fill-opacity="1">
    <g transform="translate(97.178979, 24.568869)">
      <g>
        <path d="M 4.898438 -6.113281 C 4.660156 -6.21875 4.417969 -6.320312 4.179688 -6.4375 C 3.941406 -6.539062 3.722656 -6.65625 3.535156 -6.78125 C 3.347656 -6.894531 3.191406 -7.019531 3.066406 -7.144531 C 2.941406 -7.269531 2.890625 -7.394531 2.890625 -7.527344 C 2.890625 -7.644531 2.933594 -7.746094 3.035156 -7.851562 C 3.128906 -7.953125 3.253906 -8.039062 3.410156 -8.109375 C 3.554688 -8.171875 3.734375 -8.226562 3.929688 -8.265625 C 4.117188 -8.308594 4.316406 -8.328125 4.511719 -8.328125 C 4.742188 -8.328125 4.96875 -8.296875 5.179688 -8.257812 C 5.386719 -8.203125 5.550781 -8.132812 5.699219 -8.039062 C 5.824219 -7.953125 5.90625 -7.871094 5.957031 -7.777344 C 6.042969 -7.613281 6.1875 -7.527344 6.382812 -7.527344 L 7.652344 -7.527344 C 7.765625 -7.527344 7.859375 -7.570312 7.945312 -7.664062 C 8.027344 -7.757812 8.058594 -7.859375 8.039062 -7.984375 C 7.976562 -8.351562 7.839844 -8.683594 7.632812 -8.984375 C 7.425781 -9.285156 7.144531 -9.546875 6.8125 -9.773438 C 6.5 -9.972656 6.144531 -10.128906 5.75 -10.230469 C 5.355469 -10.335938 4.949219 -10.386719 4.511719 -10.386719 C 4.074219 -10.386719 3.648438 -10.324219 3.246094 -10.222656 C 2.839844 -10.117188 2.476562 -9.960938 2.152344 -9.765625 C 1.714844 -9.492188 1.394531 -9.171875 1.164062 -8.785156 C 0.9375 -8.402344 0.832031 -7.984375 0.832031 -7.527344 C 0.832031 -6.65625 1.238281 -5.90625 2.070312 -5.292969 C 2.359375 -5.0625 2.671875 -4.875 3.015625 -4.710938 C 3.359375 -4.542969 3.710938 -4.378906 4.066406 -4.230469 C 4.273438 -4.128906 4.503906 -4.023438 4.730469 -3.921875 C 4.960938 -3.816406 5.179688 -3.703125 5.367188 -3.597656 C 5.550781 -3.484375 5.699219 -3.367188 5.824219 -3.253906 C 5.949219 -3.128906 6.011719 -3.015625 6.011719 -2.902344 C 6.011719 -2.753906 5.957031 -2.621094 5.855469 -2.515625 C 5.75 -2.414062 5.613281 -2.320312 5.460938 -2.257812 C 5.304688 -2.195312 5.136719 -2.140625 4.949219 -2.109375 C 4.761719 -2.070312 4.597656 -2.058594 4.429688 -2.058594 C 4.292969 -2.058594 4.148438 -2.070312 4.003906 -2.089844 C 3.859375 -2.109375 3.710938 -2.140625 3.578125 -2.195312 C 3.429688 -2.234375 3.304688 -2.296875 3.203125 -2.371094 C 3.089844 -2.445312 3.003906 -2.539062 2.953125 -2.640625 C 2.910156 -2.714844 2.859375 -2.777344 2.777344 -2.828125 C 2.691406 -2.871094 2.609375 -2.902344 2.527344 -2.902344 L 1.269531 -2.902344 C 1.144531 -2.902344 1.039062 -2.847656 0.957031 -2.753906 C 0.875 -2.660156 0.851562 -2.558594 0.875 -2.445312 C 0.9375 -2.070312 1.070312 -1.726562 1.277344 -1.425781 C 1.488281 -1.113281 1.757812 -0.851562 2.109375 -0.632812 C 2.421875 -0.425781 2.777344 -0.269531 3.171875 -0.167969 C 3.566406 -0.0507812 3.992188 0 4.429688 0 C 4.949219 0 5.4375 -0.0742188 5.886719 -0.21875 C 6.332031 -0.363281 6.71875 -0.5625 7.039062 -0.820312 C 7.363281 -1.070312 7.613281 -1.382812 7.796875 -1.738281 C 7.984375 -2.089844 8.078125 -2.476562 8.078125 -2.902344 C 8.078125 -3.347656 7.976562 -3.742188 7.777344 -4.074219 C 7.582031 -4.410156 7.332031 -4.699219 7.019531 -4.949219 C 6.707031 -5.199219 6.363281 -5.417969 5.988281 -5.605469 C 5.613281 -5.78125 5.25 -5.949219 4.898438 -6.113281 Z M 4.898438 -6.113281 "/>
      </g>
    </g>
  </g>
  <g fill="#44bbbb" fill-opacity="1">
    <g transform="translate(106.090245, 24.568869)">
      <g>
        <path d="M 8.070312 -10.335938 L 6.820312 -10.335938 C 6.707031 -10.335938 6.613281 -10.292969 6.53125 -10.210938 C 6.445312 -10.128906 6.414062 -10.035156 6.414062 -9.929688 L 6.414062 -6.570312 C 6.414062 -6.46875 6.375 -6.375 6.300781 -6.300781 C 6.226562 -6.226562 6.144531 -6.199219 6.042969 -6.199219 L 3.679688 -6.199219 C 3.578125 -6.199219 3.484375 -6.226562 3.410156 -6.300781 C 3.335938 -6.375 3.304688 -6.46875 3.304688 -6.570312 L 3.304688 -9.929688 C 3.304688 -10.035156 3.265625 -10.128906 3.191406 -10.210938 C 3.109375 -10.292969 3.015625 -10.335938 2.902344 -10.335938 L 1.652344 -10.335938 C 1.539062 -10.335938 1.445312 -10.292969 1.363281 -10.210938 C 1.277344 -10.128906 1.246094 -10.035156 1.246094 -9.929688 L 1.246094 -0.40625 C 1.246094 -0.292969 1.277344 -0.199219 1.363281 -0.113281 C 1.445312 -0.03125 1.539062 0 1.652344 0 L 2.902344 0 C 3.015625 0 3.109375 -0.03125 3.191406 -0.113281 C 3.265625 -0.199219 3.304688 -0.292969 3.304688 -0.40625 L 3.304688 -3.765625 C 3.304688 -3.867188 3.335938 -3.953125 3.410156 -4.023438 C 3.484375 -4.097656 3.578125 -4.136719 3.679688 -4.136719 L 6.042969 -4.136719 C 6.144531 -4.136719 6.226562 -4.097656 6.300781 -4.023438 C 6.375 -3.953125 6.414062 -3.867188 6.414062 -3.765625 L 6.414062 -0.40625 C 6.414062 -0.292969 6.445312 -0.199219 6.53125 -0.113281 C 6.613281 -0.03125 6.707031 0 6.820312 0 L 8.070312 0 C 8.183594 0 8.277344 -0.03125 8.359375 -0.113281 C 8.433594 -0.199219 8.472656 -0.292969 8.472656 -0.40625 L 8.472656 -9.929688 C 8.472656 -10.035156 8.433594 -10.128906 8.359375 -10.210938 C 8.277344 -10.292969 8.183594 -10.335938 8.070312 -10.335938 Z M 8.070312 -10.335938 "/>
      </g>
    </g>
  </g>
</svg>